<?xml version="1.0" encoding="utf-8"?>
<!-- Generator: Adobe Illustrator 27.0.0, SVG Export Plug-In . SVG Version: 6.00 Build 0)  -->
<svg version="1.1" id="Capa_1" xmlns="http://www.w3.org/2000/svg" xmlns:xlink="http://www.w3.org/1999/xlink" x="0px" y="0px"
	 viewBox="0 0 216 46" style="enable-background:new 0 0 216 46;" xml:space="preserve">
<style type="text/css">
	.st0{fill:#FFFFFF;}
	.st1{fill:none;}
	.st2{font-family:'ArialMT';}
	.st3{font-size:33.6px;}
	.st4{fill:none;stroke:#FFFFFF;stroke-miterlimit:10;}
</style>
<path class="st0" d="M14.9,6.2c-0.1,0.4,0.2,0.7,0.4,1.2c1.2,2.5-0.1,6.8-2.1,9.2c-0.6,0.7-0.8,0.9-0.8,0.9
	c-0.2,0.1-0.4,0.2-0.5,0.4c0,0-0.2,0.3-0.2,0.7c0,0.6,0.3,3.9,3.3,6.6c0.9,0.8,1.5,1.3,2.5,1.6c1.6,0.4,2.3-0.4,4,0.1
	c1.3,0.4,1.7,1.1,2.3,0.9c0.8-0.3,1.1-1.8,1.3-2.9c0.6-3.2,0-6.4,0.8-7.4c0.1-0.1,0.3-0.3,0.4-0.7c0.1-0.5-0.2-0.7-0.1-1.1
	c0.1-0.3,0.3-0.3,0.4-0.6c0.2-0.5-0.1-1.1-0.3-1.5c-1.5-3.1-2.3-4.6-3-5.3c-1.9-1.9-3.9-2.3-4.6-2.5C17.4,5.5,15.2,5.4,14.9,6.2z"/>
<path class="st0" d="M13.9,6.3c0.7,0.4,0.9,1.5,1.1,2.5c0.6,3.5-1.3,7.4-3.3,8.2c-0.2,0.1-0.3,0.1-0.5,0.3c-0.9,0.9-0.3,3.8,0.7,5.6
	c1.8,3.3,5.6,5.1,7.1,4.8c0.1,0,0.4-0.1,0.7,0.1c0.4,0.4,0.1,1.3-0.2,3c-0.3,2.1,0,2.2-0.3,2.6c-0.6,0.9-1.8,0.4-5,0.4
	c-3.1,0-3.9,0.4-4.6-0.4c-0.7-0.8-0.8-2.2-0.8-4.4c0-0.8,0-0.6,0.2-3.5c0.1-2.6,0.1-3.4-0.2-4.4c-0.3-0.9-0.6-1.2-0.9-1.8
	c-1.2-2.2-1.1-5.4-0.3-7.6C8.7,8.1,12.3,5.3,13.9,6.3z"/>
<rect x="39.7" y="11.2" class="st1" width="190" height="36.8"/>
<text transform="matrix(1 0 0 1 39.7437 35.0314)" class="st0 st2 st3">Globodain</text>
<rect x="3.8" y="2.8" class="st4" width="27.2" height="34.4"/>
</svg>
