<?xml version="1.0" encoding="UTF-8"?>
<svg id="Layer_2" data-name="Layer 2" xmlns="http://www.w3.org/2000/svg" xmlns:xlink="http://www.w3.org/1999/xlink" viewBox="0 0 237.72 64.66">
  <defs>
    <linearGradient id="linear-gradient" x1="0" y1="22.18" x2="36.62" y2="22.18" gradientTransform="translate(0 66.76) scale(1 -1)" gradientUnits="userSpaceOnUse">
      <stop offset="0" stop-color="#004aad"/>
      <stop offset="1" stop-color="#5ce1e6"/>
    </linearGradient>
    <linearGradient id="linear-gradient-2" x1="2.25" y1="28.09" x2="39.08" y2="28.09" xlink:href="#linear-gradient"/>
    <linearGradient id="linear-gradient-3" x1="4.2" y1="55.46" x2="32.3" y2="55.46" gradientTransform="translate(0 66.76) scale(1 -1)" gradientUnits="userSpaceOnUse">
      <stop offset="0" stop-color="#5ce1e6"/>
      <stop offset="1" stop-color="#004aad"/>
    </linearGradient>
    <linearGradient id="linear-gradient-4" x1="7.3" y1="51.35" x2="34.23" y2="51.35" xlink:href="#linear-gradient-3"/>
  </defs>
  <g id="Layer_1-2" data-name="Layer 1">
    <g id="Layer_2-2" data-name="Layer 2-2">
      <g id="Layer_1-2" data-name="Layer 1-2">
        <g>
          <path d="M1.38,24.49c.53,3.17,2.23,5.49,4.55,7.44,2.99,2.51,6.45,4.26,9.9,6.02,4.92,2.51,10,4.75,14.36,8.22,3.21,2.55,5.66,5.62,6.28,9.83,.38,2.57,.06,5.08-.7,7.55-.11,.35-.2,.7-.32,1.11-.59-4.73-2.82-8.58-6.13-11.86-2.66-2.64-5.74-4.73-8.94-6.65-4.38-2.62-9.01-4.83-13.3-7.62-2.26-1.47-4.42-3.08-5.88-5.44-1.67-2.69-1.61-6.27,.17-8.61h0Z" style="fill: url(#linear-gradient);"/>
          <path d="M3.42,19.34c.34,2.79,1.84,4.81,3.92,6.46,3.29,2.63,7.12,4.3,10.89,6.05,4.28,1.98,8.61,3.87,12.51,6.56,3.53,2.44,6.48,5.37,7.74,9.64,.97,3.29,.65,6.55-.25,9.95-.84-7.04-4.9-11.65-10.53-15.19-4.72-2.97-9.9-5.03-14.82-7.59-3.28-1.7-6.37-3.71-8.67-6.68-2.05-2.65-2.57-5.57-1.21-8.73,.04-.1,.12-.19,.18-.28,.04-.05,.09-.09,.23-.19h0Z" style="fill: url(#linear-gradient-2);"/>
          <path d="M32.3,2.91c-.08,3.27-1.96,5.57-4.24,7.57-2.83,2.48-6.07,4.34-9.38,6.12-3.86,2.07-8.09,3.92-12.05,5.75-.43,.21-.68,.51-.98-.27-.09-.24-1.28-2.75-1.38-2.99-.08-.21-.23-.31,.44-.65,4.59-2.09,10.93-5.34,15.31-7.84,3.23-1.84,6.4-3.76,9.06-6.41,1.05-1.05,1.18-1.2,2.07-2.93,.34-.68,.44-1.1,.53-1.27,.08,.17,.18,.34,.24,.52,.25,.78,.4,1.57,.38,2.4h0Z" style="fill: url(#linear-gradient-3);"/>
          <path d="M7.77,24.4c-.24-.19-.79-.59-.22-.84,1.97-.91,5.71-2.71,7.65-3.67,4.86-2.41,9.64-4.97,13.69-8.66,2.11-1.91,3.87-4.06,4.41-7.16,1.46,2.21,1.05,6.09-.13,8.01-3.16,5.13-8.25,7.7-13.21,10.48-2.56,1.44-5.68,2.79-8.33,4.05-.44,.2-.39,.22-.85-.09" style="fill: url(#linear-gradient-4);"/>
        </g>
      </g>
    </g>
    <text transform="translate(49.4 38.36)" style="fill: #fff; font-family: FuturaBT-Heavy, &apos;Futura Hv BT&apos;; font-size: 35.38px; font-weight: 800; letter-spacing: .03em;"><tspan x="0" y="0">Globodain</tspan></text>
  </g>
</svg>