<?xml version="1.0" encoding="UTF-8"?>
<svg id="Layer_2" data-name="Layer 2" xmlns="http://www.w3.org/2000/svg" viewBox="0 0 664.65 142.48">
  <g id="Capa_1" data-name="Capa 1">
    <text transform="translate(110.66 108.23)" style="fill: #3148d3; font-family: Bahnschrift-Bold, Bahnschrift; font-size: 126.59px; font-variation-settings: &apos;wght&apos; 700, &apos;wdth&apos; 100; font-weight: 700; letter-spacing: .09em;"><tspan x="0" y="0">oftCamp</tspan></text>
    <ellipse cx="37.25" cy="54.12" rx="36.38" ry="49.09" style="fill: #3148d3;"/>
    <ellipse cx="65.47" cy="87.33" rx="34.65" ry="45.37" style="fill: #3148d3;"/>
    <ellipse cx="35.41" cy="98.35" rx="35.41" ry="36.36" style="fill: #3148d3;"/>
    <ellipse cx="64.69" cy="41.66" rx="33.54" ry="34.3" style="fill: #3148d3;"/>
    <path d="M48.97,74.43c0,1.99-1.77,3.52-3.73,3.21-11.18-1.79-19.73-11.48-19.73-23.16s8.54-21.37,19.73-23.16c1.96-.31,3.73,1.22,3.73,3.21v39.91Z" style="fill: #fff;"/>
    <path d="M54.77,105.26c0,1.94,1.73,3.43,3.65,3.14,11.22-1.75,19.81-11.46,19.81-23.18s-8.59-21.42-19.81-23.18c-1.92-.3-3.65,1.19-3.65,3.14v40.08Z" style="fill: #fff;"/>
    <circle cx="35.71" cy="98.08" r="10.35" style="fill: #fff;"/>
    <path d="M75.35,35.46c-1.57,8.48-8.26,15.16-16.73,16.73-2,.37-3.84-1.16-3.84-3.19v-14.14c0-1.79,1.45-3.24,3.24-3.24h14.14c2.03,0,3.56,1.85,3.19,3.84Z" style="fill: #fff;"/>
  </g>
</svg>