<?xml version="1.0" encoding="UTF-8"?>
<svg id="Layer_2" data-name="Layer 2" xmlns="http://www.w3.org/2000/svg" viewBox="0 0 252 252">
  <g id="Capa_1" data-name="Capa 1">
    <rect width="252" height="252" rx="33.05" ry="33.05" style="fill: #3148d3;"/>
    <circle cx="123.12" cy="122.5" r="122.5" style="fill: #3148d3;"/>
    <ellipse cx="94.39" cy="92.31" rx="46.64" ry="71.28" style="fill: #fff;"/>
    <ellipse cx="149.12" cy="156.72" rx="43.28" ry="64.07" style="fill: #fff;"/>
    <ellipse cx="90.82" cy="170.21" rx="44.76" ry="46.6" style="fill: #fff;"/>
    <ellipse cx="146.45" cy="68.16" rx="39.5" ry="42.6" style="fill: #fff;"/>
    <path d="M117.12,131.7c0,3.85-3.44,6.83-7.24,6.22-21.68-3.47-38.25-22.26-38.25-44.92s16.57-41.45,38.25-44.92c3.8-.61,7.24,2.37,7.24,6.22v77.39Z" style="fill: #3148d3;"/>
    <path d="M128.37,191.48c0,3.76,3.36,6.66,7.07,6.08,21.76-3.4,38.42-22.23,38.42-44.94s-16.65-41.55-38.42-44.94c-3.72-.58-7.07,2.32-7.07,6.08v77.73Z" style="fill: #3148d3;"/>
    <circle cx="91.41" cy="177.56" r="20.07" style="fill: #3148d3;"/>
    <path d="M168.27,56.12c-3.05,16.44-16.01,29.4-32.45,32.45-3.87,.72-7.45-2.25-7.45-6.19v-27.42c0-3.47,2.82-6.29,6.29-6.29h27.42c3.94,0,6.91,3.58,6.19,7.45Z" style="fill: #3148d3;"/>
  </g>
</svg>