<svg xmlns="http://www.w3.org/2000/svg" xmlns:xlink="http://www.w3.org/1999/xlink" width="423" zoomAndPan="magnify" viewBox="0 0 317.25 56.999997" height="76" preserveAspectRatio="xMidYMid meet" version="1.0"><defs><g/><clipPath id="213fb0c4de"><path d="M 284.101562 12.046875 L 316.277344 12.046875 L 316.277344 44.222656 L 284.101562 44.222656 Z M 284.101562 12.046875 " clip-rule="nonzero"/></clipPath><clipPath id="e05dfae023"><path d="M 284.101562 12.046875 L 316 12.046875 L 316 44 L 284.101562 44 Z M 284.101562 12.046875 " clip-rule="nonzero"/></clipPath></defs><g fill="#3148d3" fill-opacity="1"><g transform="translate(9.157819, 38.480255)"><g><path d="M 17.578125 -11.421875 L 22.265625 -11.421875 L 22.265625 -2.4375 C 21.066406 -1.53125 19.675781 -0.832031 18.09375 -0.34375 C 16.507812 0.132812 14.914062 0.375 13.3125 0.375 C 11.007812 0.375 8.941406 -0.113281 7.109375 -1.09375 C 5.273438 -2.070312 3.835938 -3.429688 2.796875 -5.171875 C 1.753906 -6.910156 1.234375 -8.875 1.234375 -11.0625 C 1.234375 -13.257812 1.753906 -15.226562 2.796875 -16.96875 C 3.835938 -18.707031 5.285156 -20.066406 7.140625 -21.046875 C 9.003906 -22.023438 11.09375 -22.515625 13.40625 -22.515625 C 15.34375 -22.515625 17.101562 -22.1875 18.6875 -21.53125 C 20.269531 -20.882812 21.597656 -19.9375 22.671875 -18.6875 L 19.390625 -15.65625 C 17.804688 -17.320312 15.894531 -18.15625 13.65625 -18.15625 C 12.25 -18.15625 10.992188 -17.859375 9.890625 -17.265625 C 8.796875 -16.671875 7.941406 -15.835938 7.328125 -14.765625 C 6.722656 -13.691406 6.421875 -12.457031 6.421875 -11.0625 C 6.421875 -9.695312 6.722656 -8.472656 7.328125 -7.390625 C 7.941406 -6.316406 8.789062 -5.476562 9.875 -4.875 C 10.96875 -4.28125 12.207031 -3.984375 13.59375 -3.984375 C 15.070312 -3.984375 16.398438 -4.300781 17.578125 -4.9375 Z M 17.578125 -11.421875 "/></g></g></g><g fill="#3148d3" fill-opacity="1"><g transform="translate(39.869506, 38.480255)"><g><path d="M 2.625 -22.140625 L 7.75 -22.140625 L 7.75 -4.171875 L 18.84375 -4.171875 L 18.84375 0 L 2.625 0 Z M 2.625 -22.140625 "/></g></g></g><g fill="#3148d3" fill-opacity="1"><g transform="translate(65.299348, 38.480255)"><g><path d="M 13.34375 0.375 C 11.050781 0.375 8.976562 -0.117188 7.125 -1.109375 C 5.28125 -2.097656 3.835938 -3.460938 2.796875 -5.203125 C 1.753906 -6.941406 1.234375 -8.894531 1.234375 -11.0625 C 1.234375 -13.238281 1.753906 -15.195312 2.796875 -16.9375 C 3.835938 -18.675781 5.28125 -20.039062 7.125 -21.03125 C 8.976562 -22.019531 11.050781 -22.515625 13.34375 -22.515625 C 15.644531 -22.515625 17.710938 -22.019531 19.546875 -21.03125 C 21.378906 -20.039062 22.820312 -18.675781 23.875 -16.9375 C 24.925781 -15.195312 25.453125 -13.238281 25.453125 -11.0625 C 25.453125 -8.894531 24.925781 -6.941406 23.875 -5.203125 C 22.820312 -3.460938 21.378906 -2.097656 19.546875 -1.109375 C 17.710938 -0.117188 15.644531 0.375 13.34375 0.375 Z M 13.34375 -3.984375 C 14.65625 -3.984375 15.835938 -4.28125 16.890625 -4.875 C 17.941406 -5.476562 18.765625 -6.316406 19.359375 -7.390625 C 19.960938 -8.472656 20.265625 -9.695312 20.265625 -11.0625 C 20.265625 -12.4375 19.960938 -13.660156 19.359375 -14.734375 C 18.765625 -15.804688 17.941406 -16.644531 16.890625 -17.25 C 15.835938 -17.851562 14.65625 -18.15625 13.34375 -18.15625 C 12.039062 -18.15625 10.859375 -17.851562 9.796875 -17.25 C 8.742188 -16.644531 7.914062 -15.804688 7.3125 -14.734375 C 6.71875 -13.660156 6.421875 -12.4375 6.421875 -11.0625 C 6.421875 -9.695312 6.71875 -8.472656 7.3125 -7.390625 C 7.914062 -6.316406 8.742188 -5.476562 9.796875 -4.875 C 10.859375 -4.28125 12.039062 -3.984375 13.34375 -3.984375 Z M 13.34375 -3.984375 "/></g></g></g><g fill="#3148d3" fill-opacity="1"><g transform="translate(98.319867, 38.480255)"><g><path d="M 18.875 -11.515625 C 20.144531 -11.109375 21.132812 -10.4375 21.84375 -9.5 C 22.5625 -8.5625 22.921875 -7.410156 22.921875 -6.046875 C 22.921875 -4.097656 22.164062 -2.601562 20.65625 -1.5625 C 19.15625 -0.519531 16.960938 0 14.078125 0 L 2.625 0 L 2.625 -22.140625 L 13.4375 -22.140625 C 16.132812 -22.140625 18.207031 -21.617188 19.65625 -20.578125 C 21.101562 -19.546875 21.828125 -18.144531 21.828125 -16.375 C 21.828125 -15.300781 21.566406 -14.34375 21.046875 -13.5 C 20.523438 -12.65625 19.800781 -11.992188 18.875 -11.515625 Z M 7.71875 -18.28125 L 7.71875 -13.0625 L 12.8125 -13.0625 C 14.070312 -13.0625 15.03125 -13.28125 15.6875 -13.71875 C 16.34375 -14.164062 16.671875 -14.820312 16.671875 -15.6875 C 16.671875 -16.550781 16.34375 -17.195312 15.6875 -17.625 C 15.03125 -18.0625 14.070312 -18.28125 12.8125 -18.28125 Z M 13.6875 -3.859375 C 15.039062 -3.859375 16.054688 -4.078125 16.734375 -4.515625 C 17.421875 -4.960938 17.765625 -5.648438 17.765625 -6.578125 C 17.765625 -8.410156 16.40625 -9.328125 13.6875 -9.328125 L 7.71875 -9.328125 L 7.71875 -3.859375 Z M 13.6875 -3.859375 "/></g></g></g><g fill="#3148d3" fill-opacity="1"><g transform="translate(128.841795, 38.480255)"><g><path d="M 13.34375 0.375 C 11.050781 0.375 8.976562 -0.117188 7.125 -1.109375 C 5.28125 -2.097656 3.835938 -3.460938 2.796875 -5.203125 C 1.753906 -6.941406 1.234375 -8.894531 1.234375 -11.0625 C 1.234375 -13.238281 1.753906 -15.195312 2.796875 -16.9375 C 3.835938 -18.675781 5.28125 -20.039062 7.125 -21.03125 C 8.976562 -22.019531 11.050781 -22.515625 13.34375 -22.515625 C 15.644531 -22.515625 17.710938 -22.019531 19.546875 -21.03125 C 21.378906 -20.039062 22.820312 -18.675781 23.875 -16.9375 C 24.925781 -15.195312 25.453125 -13.238281 25.453125 -11.0625 C 25.453125 -8.894531 24.925781 -6.941406 23.875 -5.203125 C 22.820312 -3.460938 21.378906 -2.097656 19.546875 -1.109375 C 17.710938 -0.117188 15.644531 0.375 13.34375 0.375 Z M 13.34375 -3.984375 C 14.65625 -3.984375 15.835938 -4.28125 16.890625 -4.875 C 17.941406 -5.476562 18.765625 -6.316406 19.359375 -7.390625 C 19.960938 -8.472656 20.265625 -9.695312 20.265625 -11.0625 C 20.265625 -12.4375 19.960938 -13.660156 19.359375 -14.734375 C 18.765625 -15.804688 17.941406 -16.644531 16.890625 -17.25 C 15.835938 -17.851562 14.65625 -18.15625 13.34375 -18.15625 C 12.039062 -18.15625 10.859375 -17.851562 9.796875 -17.25 C 8.742188 -16.644531 7.914062 -15.804688 7.3125 -14.734375 C 6.71875 -13.660156 6.421875 -12.4375 6.421875 -11.0625 C 6.421875 -9.695312 6.71875 -8.472656 7.3125 -7.390625 C 7.914062 -6.316406 8.742188 -5.476562 9.796875 -4.875 C 10.859375 -4.28125 12.039062 -3.984375 13.34375 -3.984375 Z M 13.34375 -3.984375 "/></g></g></g><g fill="#3148d3" fill-opacity="1"><g transform="translate(161.862313, 38.480255)"><g><path d="M 2.625 -22.140625 L 12.6875 -22.140625 C 15.082031 -22.140625 17.203125 -21.679688 19.046875 -20.765625 C 20.898438 -19.847656 22.335938 -18.554688 23.359375 -16.890625 C 24.378906 -15.222656 24.890625 -13.28125 24.890625 -11.0625 C 24.890625 -8.851562 24.378906 -6.914062 23.359375 -5.25 C 22.335938 -3.582031 20.898438 -2.289062 19.046875 -1.375 C 17.203125 -0.457031 15.082031 0 12.6875 0 L 2.625 0 Z M 12.421875 -4.203125 C 14.640625 -4.203125 16.40625 -4.816406 17.71875 -6.046875 C 19.039062 -7.285156 19.703125 -8.957031 19.703125 -11.0625 C 19.703125 -13.175781 19.039062 -14.847656 17.71875 -16.078125 C 16.40625 -17.316406 14.640625 -17.9375 12.421875 -17.9375 L 7.75 -17.9375 L 7.75 -4.203125 Z M 12.421875 -4.203125 "/></g></g></g><g fill="#3148d3" fill-opacity="1"><g transform="translate(194.313529, 38.480255)"><g><path d="M 17.203125 -4.75 L 6.921875 -4.75 L 4.96875 0 L -0.28125 0 L 9.578125 -22.140625 L 14.640625 -22.140625 L 24.546875 0 L 19.171875 0 Z M 15.59375 -8.640625 L 12.078125 -17.109375 L 8.578125 -8.640625 Z M 15.59375 -8.640625 "/></g></g></g><g fill="#3148d3" fill-opacity="1"><g transform="translate(224.867068, 38.480255)"><g><path d="M 2.625 -22.140625 L 7.75 -22.140625 L 7.75 0 L 2.625 0 Z M 2.625 -22.140625 "/></g></g></g><g fill="#3148d3" fill-opacity="1"><g transform="translate(241.567653, 38.480255)"><g><path d="M 22.921875 -22.140625 L 22.921875 0 L 18.71875 0 L 7.6875 -13.4375 L 7.6875 0 L 2.625 0 L 2.625 -22.140625 L 6.859375 -22.140625 L 17.875 -8.703125 L 17.875 -22.140625 Z M 22.921875 -22.140625 "/></g></g></g><g clip-path="url(#213fb0c4de)"><path fill="#3148d3" d="M 288.320312 12.046875 L 312.058594 12.046875 C 312.332031 12.046875 312.609375 12.074219 312.878906 12.128906 C 313.152344 12.183594 313.414062 12.261719 313.671875 12.371094 C 313.925781 12.476562 314.171875 12.605469 314.402344 12.757812 C 314.632812 12.914062 314.84375 13.089844 315.039062 13.285156 C 315.238281 13.480469 315.410156 13.691406 315.566406 13.921875 C 315.71875 14.152344 315.847656 14.398438 315.957031 14.652344 C 316.0625 14.910156 316.140625 15.171875 316.195312 15.445312 C 316.25 15.714844 316.277344 15.992188 316.277344 16.269531 L 316.277344 40.003906 C 316.277344 40.28125 316.25 40.554688 316.195312 40.824219 C 316.140625 41.097656 316.0625 41.359375 315.957031 41.617188 C 315.847656 41.875 315.71875 42.117188 315.566406 42.347656 C 315.410156 42.578125 315.238281 42.789062 315.039062 42.984375 C 314.84375 43.183594 314.632812 43.355469 314.402344 43.511719 C 314.171875 43.664062 313.925781 43.792969 313.671875 43.902344 C 313.414062 44.007812 313.152344 44.085938 312.878906 44.140625 C 312.609375 44.195312 312.332031 44.222656 312.058594 44.222656 L 288.320312 44.222656 C 288.046875 44.222656 287.769531 44.195312 287.5 44.140625 C 287.226562 44.085938 286.964844 44.007812 286.707031 43.902344 C 286.453125 43.792969 286.207031 43.664062 285.976562 43.511719 C 285.746094 43.355469 285.535156 43.183594 285.339844 42.984375 C 285.140625 42.789062 284.96875 42.578125 284.8125 42.347656 C 284.660156 42.117188 284.53125 41.875 284.421875 41.617188 C 284.316406 41.359375 284.238281 41.097656 284.183594 40.824219 C 284.128906 40.554688 284.101562 40.28125 284.101562 40.003906 L 284.101562 16.269531 C 284.101562 15.992188 284.128906 15.714844 284.183594 15.445312 C 284.238281 15.171875 284.316406 14.910156 284.421875 14.652344 C 284.53125 14.398438 284.660156 14.152344 284.8125 13.921875 C 284.96875 13.691406 285.140625 13.480469 285.339844 13.285156 C 285.535156 13.089844 285.746094 12.914062 285.976562 12.757812 C 286.207031 12.605469 286.453125 12.476562 286.707031 12.371094 C 286.964844 12.261719 287.226562 12.183594 287.5 12.128906 C 287.769531 12.074219 288.046875 12.046875 288.320312 12.046875 Z M 288.320312 12.046875 " fill-opacity="1" fill-rule="nonzero"/></g><g clip-path="url(#e05dfae023)"><path fill="#3148d3" d="M 315.460938 27.6875 C 315.460938 28.714844 315.363281 29.730469 315.160156 30.738281 C 314.960938 31.746094 314.664062 32.726562 314.269531 33.671875 C 313.878906 34.621094 313.398438 35.523438 312.824219 36.378906 C 312.253906 37.230469 311.605469 38.019531 310.882812 38.746094 C 310.15625 39.472656 309.363281 40.121094 308.511719 40.691406 C 307.65625 41.261719 306.753906 41.746094 305.808594 42.136719 C 304.859375 42.53125 303.878906 42.828125 302.875 43.027344 C 301.867188 43.226562 300.847656 43.328125 299.820312 43.328125 C 298.792969 43.328125 297.777344 43.226562 296.769531 43.027344 C 295.761719 42.828125 294.785156 42.53125 293.835938 42.136719 C 292.886719 41.746094 291.988281 41.261719 291.132812 40.691406 C 290.277344 40.121094 289.488281 39.472656 288.761719 38.746094 C 288.035156 38.019531 287.386719 37.230469 286.816406 36.378906 C 286.246094 35.523438 285.765625 34.621094 285.371094 33.671875 C 284.980469 32.726562 284.683594 31.746094 284.480469 30.738281 C 284.28125 29.730469 284.183594 28.714844 284.183594 27.6875 C 284.183594 26.660156 284.28125 25.644531 284.480469 24.636719 C 284.683594 23.628906 284.980469 22.652344 285.371094 21.703125 C 285.765625 20.753906 286.246094 19.851562 286.816406 19 C 287.386719 18.144531 288.035156 17.355469 288.761719 16.628906 C 289.488281 15.902344 290.277344 15.253906 291.132812 14.683594 C 291.988281 14.113281 292.886719 13.632812 293.835938 13.238281 C 294.785156 12.847656 295.761719 12.550781 296.769531 12.347656 C 297.777344 12.148438 298.792969 12.046875 299.820312 12.046875 C 300.847656 12.046875 301.867188 12.148438 302.875 12.347656 C 303.878906 12.550781 304.859375 12.847656 305.808594 13.238281 C 306.753906 13.632812 307.65625 14.113281 308.511719 14.683594 C 309.363281 15.253906 310.15625 15.902344 310.882812 16.628906 C 311.605469 17.355469 312.253906 18.144531 312.824219 19 C 313.398438 19.851562 313.878906 20.753906 314.269531 21.703125 C 314.664062 22.652344 314.960938 23.628906 315.160156 24.636719 C 315.363281 25.644531 315.460938 26.660156 315.460938 27.6875 Z M 315.460938 27.6875 " fill-opacity="1" fill-rule="nonzero"/></g><path fill="#ffffff" d="M 302.109375 23.832031 C 302.109375 24.429688 302.070312 25.023438 301.992188 25.609375 C 301.917969 26.195312 301.804688 26.765625 301.65625 27.316406 C 301.503906 27.867188 301.320312 28.394531 301.105469 28.890625 C 300.886719 29.386719 300.640625 29.847656 300.363281 30.269531 C 300.089844 30.691406 299.789062 31.070312 299.460938 31.402344 C 299.136719 31.734375 298.792969 32.011719 298.433594 32.242188 C 298.070312 32.46875 297.699219 32.644531 297.316406 32.757812 C 296.933594 32.875 296.542969 32.933594 296.152344 32.933594 C 295.761719 32.933594 295.375 32.875 294.992188 32.757812 C 294.609375 32.644531 294.234375 32.46875 293.875 32.242188 C 293.515625 32.011719 293.171875 31.734375 292.84375 31.402344 C 292.519531 31.070312 292.21875 30.691406 291.941406 30.269531 C 291.667969 29.847656 291.417969 29.386719 291.203125 28.890625 C 290.984375 28.394531 290.800781 27.867188 290.652344 27.316406 C 290.503906 26.765625 290.390625 26.195312 290.3125 25.609375 C 290.238281 25.023438 290.199219 24.429688 290.199219 23.832031 C 290.199219 23.234375 290.238281 22.644531 290.3125 22.058594 C 290.390625 21.472656 290.503906 20.902344 290.652344 20.351562 C 290.800781 19.800781 290.984375 19.273438 291.203125 18.777344 C 291.417969 18.28125 291.667969 17.820312 291.941406 17.398438 C 292.21875 16.976562 292.519531 16.597656 292.84375 16.265625 C 293.171875 15.933594 293.515625 15.65625 293.875 15.425781 C 294.234375 15.195312 294.609375 15.023438 294.992188 14.90625 C 295.375 14.792969 295.761719 14.734375 296.152344 14.734375 C 296.542969 14.734375 296.933594 14.792969 297.316406 14.90625 C 297.699219 15.023438 298.070312 15.195312 298.433594 15.425781 C 298.792969 15.65625 299.136719 15.933594 299.460938 16.265625 C 299.789062 16.597656 300.089844 16.976562 300.363281 17.398438 C 300.640625 17.820312 300.886719 18.28125 301.105469 18.777344 C 301.320312 19.273438 301.503906 19.800781 301.65625 20.351562 C 301.804688 20.902344 301.917969 21.472656 301.992188 22.058594 C 302.070312 22.644531 302.109375 23.234375 302.109375 23.832031 Z M 302.109375 23.832031 " fill-opacity="1" fill-rule="nonzero"/><path fill="#ffffff" d="M 308.667969 32.058594 C 308.667969 32.59375 308.632812 33.125 308.5625 33.652344 C 308.488281 34.179688 308.386719 34.691406 308.246094 35.1875 C 308.109375 35.683594 307.9375 36.15625 307.734375 36.601562 C 307.535156 37.046875 307.304688 37.460938 307.046875 37.839844 C 306.792969 38.222656 306.511719 38.558594 306.210938 38.859375 C 305.910156 39.15625 305.589844 39.410156 305.257812 39.613281 C 304.921875 39.820312 304.574219 39.976562 304.21875 40.082031 C 303.863281 40.183594 303.503906 40.238281 303.140625 40.238281 C 302.777344 40.238281 302.417969 40.183594 302.0625 40.082031 C 301.707031 39.976562 301.363281 39.820312 301.027344 39.613281 C 300.691406 39.410156 300.375 39.15625 300.070312 38.859375 C 299.769531 38.558594 299.492188 38.222656 299.234375 37.839844 C 298.976562 37.460938 298.75 37.046875 298.546875 36.601562 C 298.34375 36.15625 298.175781 35.683594 298.035156 35.1875 C 297.898438 34.691406 297.792969 34.179688 297.722656 33.652344 C 297.652344 33.125 297.617188 32.59375 297.617188 32.058594 C 297.617188 31.519531 297.652344 30.988281 297.722656 30.460938 C 297.792969 29.933594 297.898438 29.421875 298.035156 28.925781 C 298.175781 28.429688 298.34375 27.960938 298.546875 27.511719 C 298.75 27.066406 298.976562 26.652344 299.234375 26.273438 C 299.492188 25.894531 299.769531 25.554688 300.070312 25.253906 C 300.375 24.957031 300.691406 24.707031 301.027344 24.5 C 301.363281 24.292969 301.707031 24.140625 302.0625 24.035156 C 302.417969 23.929688 302.777344 23.878906 303.140625 23.878906 C 303.503906 23.878906 303.863281 23.929688 304.21875 24.035156 C 304.574219 24.140625 304.921875 24.292969 305.257812 24.5 C 305.589844 24.707031 305.910156 24.957031 306.210938 25.253906 C 306.511719 25.554688 306.792969 25.894531 307.046875 26.273438 C 307.304688 26.652344 307.535156 27.066406 307.734375 27.511719 C 307.9375 27.960938 308.109375 28.429688 308.246094 28.925781 C 308.386719 29.421875 308.488281 29.933594 308.5625 30.460938 C 308.632812 30.988281 308.667969 31.519531 308.667969 32.058594 Z M 308.667969 32.058594 " fill-opacity="1" fill-rule="nonzero"/><path fill="#ffffff" d="M 301.414062 33.78125 C 301.414062 34.171875 301.375 34.558594 301.304688 34.941406 C 301.230469 35.324219 301.121094 35.695312 300.976562 36.054688 C 300.835938 36.417969 300.65625 36.761719 300.449219 37.085938 C 300.242188 37.410156 300.003906 37.710938 299.738281 37.988281 C 299.472656 38.261719 299.183594 38.507812 298.871094 38.726562 C 298.5625 38.945312 298.230469 39.125 297.886719 39.277344 C 297.539062 39.425781 297.179688 39.539062 296.8125 39.613281 C 296.445312 39.691406 296.074219 39.730469 295.699219 39.730469 C 295.324219 39.730469 294.949219 39.691406 294.582031 39.613281 C 294.214844 39.539062 293.859375 39.425781 293.511719 39.277344 C 293.164062 39.125 292.835938 38.945312 292.523438 38.726562 C 292.210938 38.507812 291.921875 38.261719 291.65625 37.988281 C 291.390625 37.710938 291.15625 37.410156 290.945312 37.085938 C 290.738281 36.761719 290.5625 36.417969 290.417969 36.054688 C 290.273438 35.695312 290.167969 35.324219 290.09375 34.941406 C 290.019531 34.558594 289.984375 34.171875 289.984375 33.78125 C 289.984375 33.390625 290.019531 33.003906 290.09375 32.617188 C 290.167969 32.234375 290.273438 31.863281 290.417969 31.503906 C 290.5625 31.140625 290.738281 30.800781 290.945312 30.472656 C 291.15625 30.148438 291.390625 29.847656 291.65625 29.574219 C 291.921875 29.296875 292.210938 29.050781 292.523438 28.832031 C 292.835938 28.617188 293.164062 28.433594 293.511719 28.28125 C 293.859375 28.132812 294.214844 28.019531 294.582031 27.945312 C 294.949219 27.867188 295.324219 27.828125 295.699219 27.828125 C 296.074219 27.828125 296.445312 27.867188 296.8125 27.945312 C 297.179688 28.019531 297.539062 28.132812 297.886719 28.28125 C 298.230469 28.433594 298.5625 28.617188 298.871094 28.832031 C 299.183594 29.050781 299.472656 29.296875 299.738281 29.574219 C 300.003906 29.847656 300.242188 30.148438 300.449219 30.472656 C 300.65625 30.800781 300.835938 31.140625 300.976562 31.503906 C 301.121094 31.863281 301.230469 32.234375 301.304688 32.617188 C 301.375 33.003906 301.414062 33.390625 301.414062 33.78125 Z M 301.414062 33.78125 " fill-opacity="1" fill-rule="nonzero"/><path fill="#ffffff" d="M 307.84375 20.75 C 307.84375 21.109375 307.8125 21.460938 307.746094 21.8125 C 307.683594 22.160156 307.585938 22.5 307.460938 22.832031 C 307.332031 23.160156 307.175781 23.476562 306.992188 23.773438 C 306.808594 24.070312 306.601562 24.34375 306.367188 24.597656 C 306.132812 24.847656 305.878906 25.074219 305.601562 25.273438 C 305.328125 25.472656 305.035156 25.640625 304.730469 25.773438 C 304.425781 25.910156 304.109375 26.015625 303.785156 26.085938 C 303.460938 26.15625 303.132812 26.1875 302.800781 26.1875 C 302.46875 26.1875 302.140625 26.15625 301.816406 26.085938 C 301.492188 26.015625 301.175781 25.910156 300.871094 25.773438 C 300.566406 25.640625 300.273438 25.472656 300 25.273438 C 299.722656 25.074219 299.46875 24.847656 299.234375 24.597656 C 299 24.34375 298.792969 24.070312 298.605469 23.773438 C 298.421875 23.476562 298.269531 23.160156 298.140625 22.832031 C 298.015625 22.5 297.917969 22.160156 297.855469 21.8125 C 297.789062 21.460938 297.757812 21.109375 297.757812 20.75 C 297.757812 20.394531 297.789062 20.039062 297.855469 19.6875 C 297.917969 19.339844 298.015625 19 298.140625 18.667969 C 298.269531 18.339844 298.421875 18.027344 298.605469 17.730469 C 298.792969 17.433594 299 17.15625 299.234375 16.90625 C 299.46875 16.652344 299.722656 16.425781 300 16.226562 C 300.273438 16.03125 300.566406 15.863281 300.871094 15.726562 C 301.175781 15.589844 301.492188 15.484375 301.816406 15.417969 C 302.140625 15.347656 302.46875 15.3125 302.800781 15.3125 C 303.132812 15.3125 303.460938 15.347656 303.785156 15.417969 C 304.109375 15.484375 304.425781 15.589844 304.730469 15.726562 C 305.035156 15.863281 305.328125 16.03125 305.601562 16.226562 C 305.878906 16.425781 306.132812 16.652344 306.367188 16.90625 C 306.601562 17.15625 306.808594 17.433594 306.992188 17.730469 C 307.175781 18.027344 307.332031 18.339844 307.460938 18.667969 C 307.585938 19 307.683594 19.339844 307.746094 19.6875 C 307.8125 20.039062 307.84375 20.394531 307.84375 20.75 Z M 307.84375 20.75 " fill-opacity="1" fill-rule="nonzero"/><path fill="#3148d3" d="M 299.054688 28.863281 C 299.054688 29.355469 298.617188 29.734375 298.132812 29.65625 C 295.363281 29.214844 293.246094 26.816406 293.246094 23.921875 C 293.246094 21.027344 295.363281 18.628906 298.132812 18.1875 C 298.617188 18.109375 299.054688 18.488281 299.054688 18.980469 Z M 299.054688 28.863281 " fill-opacity="1" fill-rule="nonzero"/><path fill="#3148d3" d="M 300.492188 36.496094 C 300.492188 36.976562 300.921875 37.34375 301.394531 37.273438 C 304.171875 36.835938 306.300781 34.433594 306.300781 31.535156 C 306.300781 28.632812 304.175781 26.230469 301.394531 25.796875 C 300.917969 25.722656 300.492188 26.09375 300.492188 26.574219 Z M 300.492188 36.496094 " fill-opacity="1" fill-rule="nonzero"/><path fill="#3148d3" d="M 298.335938 34.71875 C 298.335938 35.058594 298.269531 35.382812 298.140625 35.699219 C 298.011719 36.011719 297.824219 36.289062 297.585938 36.53125 C 297.34375 36.769531 297.066406 36.957031 296.753906 37.085938 C 296.441406 37.214844 296.113281 37.28125 295.773438 37.28125 C 295.433594 37.28125 295.105469 37.214844 294.792969 37.085938 C 294.480469 36.957031 294.203125 36.769531 293.960938 36.53125 C 293.722656 36.289062 293.535156 36.011719 293.40625 35.699219 C 293.277344 35.382812 293.210938 35.058594 293.210938 34.71875 C 293.210938 34.378906 293.277344 34.050781 293.40625 33.738281 C 293.535156 33.421875 293.722656 33.144531 293.960938 32.90625 C 294.203125 32.664062 294.480469 32.480469 294.792969 32.351562 C 295.105469 32.21875 295.433594 32.15625 295.773438 32.15625 C 296.113281 32.15625 296.441406 32.21875 296.753906 32.351562 C 297.066406 32.480469 297.34375 32.664062 297.585938 32.90625 C 297.824219 33.144531 298.011719 33.421875 298.140625 33.738281 C 298.269531 34.050781 298.335938 34.378906 298.335938 34.71875 Z M 298.335938 34.71875 " fill-opacity="1" fill-rule="nonzero"/><path fill="#3148d3" d="M 305.585938 19.214844 C 305.195312 21.3125 303.542969 22.96875 301.441406 23.355469 C 300.949219 23.449219 300.492188 23.070312 300.492188 22.566406 L 300.492188 19.066406 C 300.492188 18.621094 300.851562 18.261719 301.296875 18.261719 L 304.796875 18.261719 C 305.300781 18.261719 305.679688 18.71875 305.585938 19.214844 Z M 305.585938 19.214844 " fill-opacity="1" fill-rule="nonzero"/></svg>