<?xml version="1.0" encoding="utf-8"?>
<!-- Generator: Adobe Illustrator 24.1.2, SVG Export Plug-In . SVG Version: 6.00 Build 0)  -->
<svg version="1.1" id="Capa_1" xmlns="http://www.w3.org/2000/svg" xmlns:xlink="http://www.w3.org/1999/xlink" x="0px" y="0px"
	 viewBox="0 0 216 46" style="enable-background:new 0 0 216 46;" xml:space="preserve">
<style type="text/css">
	.st0{fill:#0A214B;}
	.st1{fill:none;stroke:#0A214B;stroke-width:2;stroke-miterlimit:10;}
	.st2{fill:none;}
	.st3{font-family:'MixageITCStd-Medium';}
	.st4{font-size:38px;}
</style>
<path class="st0" d="M9.65,8.35C9.53,8.75,9.84,9.1,10.1,9.66c1.29,2.79-0.08,7.57-2.32,10.31c-0.63,0.76-0.88,0.98-0.88,0.98
	c-0.2,0.13-0.4,0.22-0.56,0.47c0,0-0.2,0.3-0.23,0.78c-0.04,0.61,0.31,4.36,3.6,7.37c0.93,0.85,1.62,1.48,2.71,1.77
	c1.76,0.47,2.46-0.5,4.31,0.07c1.44,0.44,1.81,1.27,2.54,0.98c0.91-0.36,1.21-1.96,1.44-3.21c0.66-3.55,0.01-7.18,0.83-8.22
	c0.09-0.11,0.33-0.37,0.39-0.78c0.07-0.52-0.22-0.77-0.11-1.24c0.09-0.37,0.31-0.39,0.44-0.72c0.22-0.56-0.1-1.26-0.28-1.63
	c-1.64-3.46-2.46-5.19-3.21-5.94c-2.05-2.07-4.18-2.57-4.98-2.74C12.42,7.6,9.96,7.4,9.65,8.35z"/>
<path class="st0" d="M8.55,8.43c0.77,0.47,0.97,1.64,1.16,2.74c0.67,3.93-1.46,8.27-3.59,9.14c-0.18,0.07-0.36,0.12-0.55,0.33
	c-0.97,1.04-0.31,4.2,0.77,6.26c1.92,3.68,6.07,5.65,7.74,5.35c0.13-0.02,0.48-0.1,0.72,0.13c0.43,0.42,0.08,1.44-0.17,3.39
	c-0.3,2.31-0.03,2.41-0.33,2.87c-0.67,1.04-2,0.44-5.47,0.39c-3.39-0.04-4.18,0.5-4.98-0.39c-0.81-0.91-0.82-2.41-0.87-4.89
	c-0.02-0.87,0.04-0.63,0.2-3.92c0.14-2.85,0.14-3.82-0.22-4.96c-0.31-0.98-0.64-1.34-1-2.02c-1.27-2.46-1.18-5.99-0.33-8.48
	C2.98,10.41,6.8,7.37,8.55,8.43z"/>
<rect x="-6" y="4.62" class="st1" width="33" height="37.38"/>
<rect x="43.28" y="14.42" class="st2" width="178.85" height="31.87"/>
<text transform="matrix(1 0 0 1 43.2803 39.8418)" class="st0 st3 st4">Globodain</text>
</svg>
