<svg xmlns="http://www.w3.org/2000/svg" xmlns:xlink="http://www.w3.org/1999/xlink" width="500" zoomAndPan="magnify" viewBox="0 0 375 82.499998" height="110" preserveAspectRatio="xMidYMid meet" version="1.0"><defs><g/></defs><g fill="#004aad" fill-opacity="1"><g transform="translate(17.952195, 54.85414)"><g><path d="M 23.140625 -15.03125 L 29.296875 -15.03125 L 29.296875 -3.203125 C 27.722656 -2.015625 25.894531 -1.097656 23.8125 -0.453125 C 21.726562 0.179688 19.632812 0.5 17.53125 0.5 C 14.5 0.5 11.773438 -0.144531 9.359375 -1.4375 C 6.953125 -2.726562 5.0625 -4.515625 3.6875 -6.796875 C 2.3125 -9.085938 1.625 -11.675781 1.625 -14.5625 C 1.625 -17.445312 2.3125 -20.035156 3.6875 -22.328125 C 5.0625 -24.617188 6.96875 -26.410156 9.40625 -27.703125 C 11.84375 -28.992188 14.59375 -29.640625 17.65625 -29.640625 C 20.207031 -29.640625 22.519531 -29.207031 24.59375 -28.34375 C 26.675781 -27.488281 28.425781 -26.238281 29.84375 -24.59375 L 25.515625 -20.609375 C 23.429688 -22.796875 20.921875 -23.890625 17.984375 -23.890625 C 16.117188 -23.890625 14.460938 -23.5 13.015625 -22.71875 C 11.578125 -21.945312 10.457031 -20.851562 9.65625 -19.4375 C 8.851562 -18.019531 8.453125 -16.394531 8.453125 -14.5625 C 8.453125 -12.757812 8.851562 -11.148438 9.65625 -9.734375 C 10.457031 -8.328125 11.570312 -7.226562 13 -6.4375 C 14.4375 -5.644531 16.070312 -5.25 17.90625 -5.25 C 19.84375 -5.25 21.585938 -5.664062 23.140625 -6.5 Z M 23.140625 -15.03125 "/></g></g></g><g fill="#004aad" fill-opacity="1"><g transform="translate(58.368855, 54.85414)"><g><path d="M 3.453125 -29.140625 L 10.203125 -29.140625 L 10.203125 -5.5 L 24.8125 -5.5 L 24.8125 0 L 3.453125 0 Z M 3.453125 -29.140625 "/></g></g></g><g fill="#004aad" fill-opacity="1"><g transform="translate(91.834508, 54.85414)"><g><path d="M 17.5625 0.5 C 14.539062 0.5 11.816406 -0.148438 9.390625 -1.453125 C 6.960938 -2.753906 5.0625 -4.550781 3.6875 -6.84375 C 2.3125 -9.132812 1.625 -11.707031 1.625 -14.5625 C 1.625 -17.425781 2.3125 -20 3.6875 -22.28125 C 5.0625 -24.570312 6.960938 -26.367188 9.390625 -27.671875 C 11.816406 -28.984375 14.539062 -29.640625 17.5625 -29.640625 C 20.59375 -29.640625 23.3125 -28.984375 25.71875 -27.671875 C 28.132812 -26.367188 30.035156 -24.570312 31.421875 -22.28125 C 32.816406 -20 33.515625 -17.425781 33.515625 -14.5625 C 33.515625 -11.707031 32.816406 -9.132812 31.421875 -6.84375 C 30.035156 -4.550781 28.132812 -2.753906 25.71875 -1.453125 C 23.3125 -0.148438 20.59375 0.5 17.5625 0.5 Z M 17.5625 -5.25 C 19.28125 -5.25 20.832031 -5.644531 22.21875 -6.4375 C 23.613281 -7.226562 24.707031 -8.328125 25.5 -9.734375 C 26.289062 -11.148438 26.6875 -12.757812 26.6875 -14.5625 C 26.6875 -16.375 26.289062 -17.984375 25.5 -19.390625 C 24.707031 -20.804688 23.613281 -21.910156 22.21875 -22.703125 C 20.832031 -23.492188 19.28125 -23.890625 17.5625 -23.890625 C 15.84375 -23.890625 14.289062 -23.492188 12.90625 -22.703125 C 11.519531 -21.910156 10.429688 -20.804688 9.640625 -19.390625 C 8.847656 -17.984375 8.453125 -16.375 8.453125 -14.5625 C 8.453125 -12.757812 8.847656 -11.148438 9.640625 -9.734375 C 10.429688 -8.328125 11.519531 -7.226562 12.90625 -6.4375 C 14.289062 -5.644531 15.84375 -5.25 17.5625 -5.25 Z M 17.5625 -5.25 "/></g></g></g><g fill="#004aad" fill-opacity="1"><g transform="translate(135.289635, 54.85414)"><g><path d="M 24.84375 -15.15625 C 26.507812 -14.625 27.8125 -13.738281 28.75 -12.5 C 29.695312 -11.269531 30.171875 -9.753906 30.171875 -7.953125 C 30.171875 -5.398438 29.175781 -3.4375 27.1875 -2.0625 C 25.207031 -0.6875 22.316406 0 18.515625 0 L 3.453125 0 L 3.453125 -29.140625 L 17.6875 -29.140625 C 21.238281 -29.140625 23.960938 -28.457031 25.859375 -27.09375 C 27.765625 -25.738281 28.71875 -23.894531 28.71875 -21.5625 C 28.71875 -20.144531 28.378906 -18.878906 27.703125 -17.765625 C 27.023438 -16.660156 26.070312 -15.789062 24.84375 -15.15625 Z M 10.15625 -24.0625 L 10.15625 -17.1875 L 16.859375 -17.1875 C 18.523438 -17.1875 19.785156 -17.476562 20.640625 -18.0625 C 21.503906 -18.644531 21.9375 -19.503906 21.9375 -20.640625 C 21.9375 -21.785156 21.503906 -22.640625 20.640625 -23.203125 C 19.785156 -23.773438 18.523438 -24.0625 16.859375 -24.0625 Z M 18.03125 -5.078125 C 19.800781 -5.078125 21.132812 -5.367188 22.03125 -5.953125 C 22.9375 -6.535156 23.390625 -7.4375 23.390625 -8.65625 C 23.390625 -11.070312 21.601562 -12.28125 18.03125 -12.28125 L 10.15625 -12.28125 L 10.15625 -5.078125 Z M 18.03125 -5.078125 "/></g></g></g><g fill="#004aad" fill-opacity="1"><g transform="translate(175.456554, 54.85414)"><g><path d="M 17.5625 0.5 C 14.539062 0.5 11.816406 -0.148438 9.390625 -1.453125 C 6.960938 -2.753906 5.0625 -4.550781 3.6875 -6.84375 C 2.3125 -9.132812 1.625 -11.707031 1.625 -14.5625 C 1.625 -17.425781 2.3125 -20 3.6875 -22.28125 C 5.0625 -24.570312 6.960938 -26.367188 9.390625 -27.671875 C 11.816406 -28.984375 14.539062 -29.640625 17.5625 -29.640625 C 20.59375 -29.640625 23.3125 -28.984375 25.71875 -27.671875 C 28.132812 -26.367188 30.035156 -24.570312 31.421875 -22.28125 C 32.816406 -20 33.515625 -17.425781 33.515625 -14.5625 C 33.515625 -11.707031 32.816406 -9.132812 31.421875 -6.84375 C 30.035156 -4.550781 28.132812 -2.753906 25.71875 -1.453125 C 23.3125 -0.148438 20.59375 0.5 17.5625 0.5 Z M 17.5625 -5.25 C 19.28125 -5.25 20.832031 -5.644531 22.21875 -6.4375 C 23.613281 -7.226562 24.707031 -8.328125 25.5 -9.734375 C 26.289062 -11.148438 26.6875 -12.757812 26.6875 -14.5625 C 26.6875 -16.375 26.289062 -17.984375 25.5 -19.390625 C 24.707031 -20.804688 23.613281 -21.910156 22.21875 -22.703125 C 20.832031 -23.492188 19.28125 -23.890625 17.5625 -23.890625 C 15.84375 -23.890625 14.289062 -23.492188 12.90625 -22.703125 C 11.519531 -21.910156 10.429688 -20.804688 9.640625 -19.390625 C 8.847656 -17.984375 8.453125 -16.375 8.453125 -14.5625 C 8.453125 -12.757812 8.847656 -11.148438 9.640625 -9.734375 C 10.429688 -8.328125 11.519531 -7.226562 12.90625 -6.4375 C 14.289062 -5.644531 15.84375 -5.25 17.5625 -5.25 Z M 17.5625 -5.25 "/></g></g></g><g fill="#004aad" fill-opacity="1"><g transform="translate(218.911687, 54.85414)"><g><path d="M 3.453125 -29.140625 L 16.6875 -29.140625 C 19.851562 -29.140625 22.648438 -28.535156 25.078125 -27.328125 C 27.503906 -26.117188 29.390625 -24.414062 30.734375 -22.21875 C 32.085938 -20.03125 32.765625 -17.476562 32.765625 -14.5625 C 32.765625 -11.65625 32.085938 -9.101562 30.734375 -6.90625 C 29.390625 -4.71875 27.503906 -3.019531 25.078125 -1.8125 C 22.648438 -0.601562 19.851562 0 16.6875 0 L 3.453125 0 Z M 16.359375 -5.53125 C 19.273438 -5.53125 21.597656 -6.34375 23.328125 -7.96875 C 25.066406 -9.59375 25.9375 -11.789062 25.9375 -14.5625 C 25.9375 -17.34375 25.066406 -19.539062 23.328125 -21.15625 C 21.597656 -22.78125 19.273438 -23.59375 16.359375 -23.59375 L 10.203125 -23.59375 L 10.203125 -5.53125 Z M 16.359375 -5.53125 "/></g></g></g><g fill="#004aad" fill-opacity="1"><g transform="translate(261.617593, 54.85414)"><g><path d="M 22.640625 -6.25 L 9.109375 -6.25 L 6.53125 0 L -0.375 0 L 12.609375 -29.140625 L 19.265625 -29.140625 L 32.296875 0 L 25.21875 0 Z M 20.515625 -11.359375 L 15.90625 -22.515625 L 11.28125 -11.359375 Z M 20.515625 -11.359375 "/></g></g></g><g fill="#004aad" fill-opacity="1"><g transform="translate(301.826132, 54.85414)"><g><path d="M 3.453125 -29.140625 L 10.203125 -29.140625 L 10.203125 0 L 3.453125 0 Z M 3.453125 -29.140625 "/></g></g></g><g fill="#004aad" fill-opacity="1"><g transform="translate(323.803897, 54.85414)"><g><path d="M 30.171875 -29.140625 L 30.171875 0 L 24.640625 0 L 10.109375 -17.6875 L 10.109375 0 L 3.453125 0 L 3.453125 -29.140625 L 9.03125 -29.140625 L 23.515625 -11.453125 L 23.515625 -29.140625 Z M 30.171875 -29.140625 "/></g></g></g></svg>