<svg xmlns="http://www.w3.org/2000/svg" xmlns:xlink="http://www.w3.org/1999/xlink" width="322" zoomAndPan="magnify" viewBox="0 0 241.5 56.999997" height="76" preserveAspectRatio="xMidYMid meet" version="1.0"><defs><g/><clipPath id="245c8f7a53"><path d="M 0.648438 17.347656 L 57.53125 17.347656 L 57.53125 39.800781 L 0.648438 39.800781 Z M 0.648438 17.347656 " clip-rule="nonzero"/></clipPath></defs><g clip-path="url(#245c8f7a53)"><path fill="#ffffff" d="M 29.144531 21.410156 C 28.46875 21.410156 27.917969 21.957031 27.917969 22.632812 C 27.917969 23.308594 28.46875 23.855469 29.144531 23.855469 C 29.820312 23.855469 30.367188 23.308594 30.367188 22.632812 C 30.367188 21.957031 29.820312 21.410156 29.144531 21.410156 Z M 56.996094 17.34375 L 44.132812 17.34375 C 43.796875 17.34375 43.523438 17.617188 43.523438 17.957031 C 43.523438 18.292969 43.796875 18.566406 44.132812 18.566406 L 49.953125 18.566406 L 49.953125 22.023438 L 39.363281 22.023438 C 38.410156 22.023438 37.636719 21.246094 37.636719 20.292969 C 37.636719 18.667969 36.3125 17.34375 34.6875 17.34375 L 23.855469 17.34375 C 22.230469 17.34375 20.90625 18.667969 20.90625 20.292969 C 20.90625 21.246094 20.132812 22.023438 19.179688 22.023438 L 8.335938 22.023438 L 8.335938 18.566406 L 14.15625 18.566406 C 14.492188 18.566406 14.765625 18.292969 14.765625 17.957031 C 14.765625 17.617188 14.492188 17.34375 14.15625 17.34375 L 1.292969 17.34375 C 0.957031 17.34375 0.683594 17.617188 0.683594 17.957031 C 0.683594 18.292969 0.957031 18.566406 1.292969 18.566406 L 7.113281 18.566406 L 7.113281 25.441406 C 7.113281 25.777344 7.386719 26.050781 7.722656 26.050781 L 22.613281 26.050781 C 22.933594 26.050781 23.195312 26.3125 23.195312 26.636719 C 23.195312 26.921875 23.261719 27.1875 23.382812 27.429688 L 17.628906 38.566406 L 17.238281 38.566406 C 16.902344 38.566406 16.628906 38.839844 16.628906 39.175781 C 16.628906 39.511719 16.902344 39.785156 17.238281 39.785156 L 18 39.785156 C 18 39.785156 18 39.785156 18.003906 39.785156 L 19.222656 39.785156 C 19.5625 39.785156 19.832031 39.511719 19.832031 39.175781 C 19.832031 38.839844 19.5625 38.566406 19.222656 38.566406 L 19.003906 38.566406 L 24.304688 28.300781 C 24.519531 28.390625 24.753906 28.441406 25 28.441406 L 33.542969 28.441406 C 33.707031 28.441406 33.867188 28.417969 34.019531 28.375 L 39.28125 38.566406 L 39.0625 38.566406 C 38.726562 38.566406 38.453125 38.839844 38.453125 39.175781 C 38.453125 39.511719 38.726562 39.785156 39.0625 39.785156 L 40.285156 39.785156 C 40.285156 39.785156 40.289062 39.785156 40.289062 39.785156 L 41.046875 39.785156 C 41.386719 39.785156 41.660156 39.511719 41.660156 39.175781 C 41.660156 38.839844 41.386719 38.566406 41.046875 38.566406 L 40.65625 38.566406 L 35.023438 27.664062 C 35.226562 27.371094 35.347656 27.015625 35.347656 26.636719 C 35.347656 26.3125 35.609375 26.050781 35.929688 26.050781 L 50.5625 26.050781 C 50.902344 26.050781 51.175781 25.777344 51.175781 25.441406 L 51.175781 18.566406 L 56.996094 18.566406 C 57.332031 18.566406 57.605469 18.292969 57.605469 17.957031 C 57.605469 17.617188 57.332031 17.34375 56.996094 17.34375 Z M 29.144531 25.078125 C 27.796875 25.078125 26.699219 23.980469 26.699219 22.632812 C 26.699219 21.285156 27.796875 20.1875 29.144531 20.1875 C 30.492188 20.1875 31.589844 21.285156 31.589844 22.632812 C 31.589844 23.980469 30.492188 25.078125 29.144531 25.078125 Z M 29.144531 25.078125 " fill-opacity="1" fill-rule="nonzero"/></g><g fill="#ffffff" fill-opacity="1"><g transform="translate(75.356827, 39.164407)"><g><path d="M 9.8125 0.3125 C 8.101562 0.3125 6.457031 0.0703125 4.875 -0.40625 C 3.289062 -0.894531 2.035156 -1.535156 1.109375 -2.328125 L 2.53125 -5.515625 C 3.425781 -4.804688 4.53125 -4.222656 5.84375 -3.765625 C 7.164062 -3.316406 8.488281 -3.09375 9.8125 -3.09375 C 11.445312 -3.09375 12.671875 -3.351562 13.484375 -3.875 C 14.296875 -4.40625 14.703125 -5.101562 14.703125 -5.96875 C 14.703125 -6.59375 14.472656 -7.109375 14.015625 -7.515625 C 13.566406 -7.929688 12.992188 -8.253906 12.296875 -8.484375 C 11.609375 -8.710938 10.664062 -8.976562 9.46875 -9.28125 C 7.78125 -9.675781 6.414062 -10.070312 5.375 -10.46875 C 4.332031 -10.875 3.4375 -11.5 2.6875 -12.34375 C 1.945312 -13.195312 1.578125 -14.351562 1.578125 -15.8125 C 1.578125 -17.03125 1.90625 -18.132812 2.5625 -19.125 C 3.226562 -20.125 4.226562 -20.914062 5.5625 -21.5 C 6.90625 -22.09375 8.539062 -22.390625 10.46875 -22.390625 C 11.820312 -22.390625 13.148438 -22.222656 14.453125 -21.890625 C 15.753906 -21.554688 16.878906 -21.070312 17.828125 -20.4375 L 16.53125 -17.25 C 15.5625 -17.820312 14.550781 -18.253906 13.5 -18.546875 C 12.445312 -18.835938 11.425781 -18.984375 10.4375 -18.984375 C 8.820312 -18.984375 7.617188 -18.707031 6.828125 -18.15625 C 6.035156 -17.613281 5.640625 -16.894531 5.640625 -16 C 5.640625 -15.363281 5.863281 -14.84375 6.3125 -14.4375 C 6.769531 -14.039062 7.34375 -13.726562 8.03125 -13.5 C 8.726562 -13.269531 9.679688 -13.007812 10.890625 -12.71875 C 12.523438 -12.332031 13.867188 -11.9375 14.921875 -11.53125 C 15.972656 -11.125 16.867188 -10.5 17.609375 -9.65625 C 18.359375 -8.8125 18.734375 -7.675781 18.734375 -6.25 C 18.734375 -5.03125 18.398438 -3.925781 17.734375 -2.9375 C 17.078125 -1.945312 16.078125 -1.15625 14.734375 -0.5625 C 13.390625 0.0195312 11.75 0.3125 9.8125 0.3125 Z M 9.8125 0.3125 "/></g></g></g><g fill="#ffffff" fill-opacity="1"><g transform="translate(95.198188, 39.164407)"><g><path d="M 9.46875 -7.21875 L 6.53125 -4.453125 L 6.53125 0 L 2.59375 0 L 2.59375 -23.40625 L 6.53125 -23.40625 L 6.53125 -9.28125 L 14.703125 -16.84375 L 19.4375 -16.84375 L 12.390625 -9.78125 L 20.09375 0 L 15.296875 0 Z M 9.46875 -7.21875 "/></g></g></g><g fill="#ffffff" fill-opacity="1"><g transform="translate(115.260358, 39.164407)"><g><path d="M 18.359375 -16.84375 L 10.46875 1.359375 C 9.738281 3.179688 8.847656 4.46875 7.796875 5.21875 C 6.742188 5.96875 5.46875 6.34375 3.96875 6.34375 C 3.132812 6.34375 2.304688 6.203125 1.484375 5.921875 C 0.660156 5.648438 -0.0078125 5.273438 -0.53125 4.796875 L 1.046875 1.890625 C 1.421875 2.242188 1.863281 2.523438 2.375 2.734375 C 2.894531 2.953125 3.414062 3.0625 3.9375 3.0625 C 4.632812 3.0625 5.207031 2.878906 5.65625 2.515625 C 6.113281 2.160156 6.53125 1.5625 6.90625 0.71875 L 7.1875 0.0625 L -0.15625 -16.84375 L 3.9375 -16.84375 L 9.25 -4.390625 L 14.578125 -16.84375 Z M 18.359375 -16.84375 "/></g></g></g><g fill="#ffffff" fill-opacity="1"><g transform="translate(133.492961, 39.164407)"><g><path d="M 12.140625 -17.03125 C 14.265625 -17.03125 15.96875 -16.410156 17.25 -15.171875 C 18.539062 -13.929688 19.1875 -12.09375 19.1875 -9.65625 L 19.1875 0 L 15.234375 0 L 15.234375 -9.15625 C 15.234375 -10.625 14.882812 -11.726562 14.1875 -12.46875 C 13.5 -13.21875 12.515625 -13.59375 11.234375 -13.59375 C 9.773438 -13.59375 8.625 -13.15625 7.78125 -12.28125 C 6.945312 -11.414062 6.53125 -10.160156 6.53125 -8.515625 L 6.53125 0 L 2.59375 0 L 2.59375 -16.84375 L 6.34375 -16.84375 L 6.34375 -14.671875 C 6.988281 -15.453125 7.804688 -16.039062 8.796875 -16.4375 C 9.785156 -16.832031 10.898438 -17.03125 12.140625 -17.03125 Z M 12.140625 -17.03125 "/></g></g></g><g fill="#ffffff" fill-opacity="1"><g transform="translate(155.100797, 39.164407)"><g><path d="M 10.15625 0.21875 C 8.457031 0.21875 6.921875 -0.144531 5.546875 -0.875 C 4.179688 -1.613281 3.113281 -2.640625 2.34375 -3.953125 C 1.582031 -5.273438 1.203125 -6.765625 1.203125 -8.421875 C 1.203125 -10.085938 1.582031 -11.570312 2.34375 -12.875 C 3.113281 -14.175781 4.179688 -15.191406 5.546875 -15.921875 C 6.921875 -16.660156 8.457031 -17.03125 10.15625 -17.03125 C 11.882812 -17.03125 13.429688 -16.660156 14.796875 -15.921875 C 16.160156 -15.191406 17.226562 -14.175781 18 -12.875 C 18.769531 -11.570312 19.15625 -10.085938 19.15625 -8.421875 C 19.15625 -6.765625 18.769531 -5.273438 18 -3.953125 C 17.226562 -2.640625 16.160156 -1.613281 14.796875 -0.875 C 13.429688 -0.144531 11.882812 0.21875 10.15625 0.21875 Z M 10.15625 -3.15625 C 11.601562 -3.15625 12.800781 -3.640625 13.75 -4.609375 C 14.695312 -5.578125 15.171875 -6.847656 15.171875 -8.421875 C 15.171875 -9.992188 14.695312 -11.265625 13.75 -12.234375 C 12.800781 -13.203125 11.601562 -13.6875 10.15625 -13.6875 C 8.707031 -13.6875 7.515625 -13.203125 6.578125 -12.234375 C 5.640625 -11.265625 5.171875 -9.992188 5.171875 -8.421875 C 5.171875 -6.847656 5.640625 -5.578125 6.578125 -4.609375 C 7.515625 -3.640625 8.707031 -3.15625 10.15625 -3.15625 Z M 10.15625 -3.15625 "/></g></g></g><g fill="#ffffff" fill-opacity="1"><g transform="translate(175.44686, 39.164407)"><g><path d="M 18.359375 -16.84375 L 11.140625 0 L 7.0625 0 L -0.15625 -16.84375 L 3.9375 -16.84375 L 9.1875 -4.359375 L 14.578125 -16.84375 Z M 18.359375 -16.84375 "/></g></g></g><g fill="#ffffff" fill-opacity="1"><g transform="translate(193.679463, 39.164407)"><g><path d="M 9.015625 -17.03125 C 11.503906 -17.03125 13.40625 -16.4375 14.71875 -15.25 C 16.03125 -14.0625 16.6875 -12.269531 16.6875 -9.875 L 16.6875 0 L 12.96875 0 L 12.96875 -2.046875 C 12.476562 -1.316406 11.785156 -0.753906 10.890625 -0.359375 C 10.003906 0.0234375 8.929688 0.21875 7.671875 0.21875 C 6.398438 0.21875 5.289062 0.00390625 4.34375 -0.421875 C 3.40625 -0.859375 2.675781 -1.457031 2.15625 -2.21875 C 1.644531 -2.988281 1.390625 -3.859375 1.390625 -4.828125 C 1.390625 -6.335938 1.953125 -7.550781 3.078125 -8.46875 C 4.203125 -9.382812 5.972656 -9.84375 8.390625 -9.84375 L 12.75 -9.84375 L 12.75 -10.09375 C 12.75 -11.269531 12.394531 -12.171875 11.6875 -12.796875 C 10.976562 -13.429688 9.929688 -13.75 8.546875 -13.75 C 7.597656 -13.75 6.664062 -13.601562 5.75 -13.3125 C 4.84375 -13.019531 4.070312 -12.609375 3.4375 -12.078125 L 1.890625 -14.953125 C 2.773438 -15.628906 3.835938 -16.144531 5.078125 -16.5 C 6.316406 -16.851562 7.628906 -17.03125 9.015625 -17.03125 Z M 8.484375 -2.65625 C 9.472656 -2.65625 10.347656 -2.878906 11.109375 -3.328125 C 11.878906 -3.773438 12.425781 -4.421875 12.75 -5.265625 L 12.75 -7.21875 L 8.671875 -7.21875 C 6.398438 -7.21875 5.265625 -6.472656 5.265625 -4.984375 C 5.265625 -4.265625 5.546875 -3.695312 6.109375 -3.28125 C 6.679688 -2.863281 7.472656 -2.65625 8.484375 -2.65625 Z M 8.484375 -2.65625 "/></g></g></g></svg>