<?xml version="1.0" encoding="utf-8"?>
<!-- Generator: Adobe Illustrator 24.1.2, SVG Export Plug-In . SVG Version: 6.00 Build 0)  -->
<svg version="1.1" id="Capa_1" xmlns="http://www.w3.org/2000/svg" xmlns:xlink="http://www.w3.org/1999/xlink" x="0px" y="0px"
	 viewBox="0 0 400 200" style="enable-background:new 0 0 400 200;" xml:space="preserve">
<style type="text/css">
	.st0{fill:#111212;}
	.st1{fill:#FFFFFF;}
</style>
<path class="st0" d="M26.75,49.66c-29.18,15.75-18.14,80.68-4.78,84.26c9.33,2.5,17.8-25.47,37.17-25.3
	c17.69,0.16,26.36,23.63,34.95,20.46c7.85-2.9,10.04-25.95,2.21-43.85C84.74,58.79,48.78,37.77,26.75,49.66z"/>
<path class="st0" d="M53.38,117.73c9.15-3.56,22.04,5.95,21.25,15.79c-0.61,7.55-9.25,14.98-18.02,13.22
	c-6.23-1.24-10.9-6.8-11.73-13.05C43.97,126.85,47.76,119.92,53.38,117.73z"/>
<g>
	<path class="st0" d="M132.79,124.14c-0.27-0.47-0.53-0.95-0.77-1.44c-0.24-0.49-0.46-0.99-0.65-1.48
		c-3.48-9.31-6.96-18.54-10.41-27.69s-6.93-18.38-10.41-27.69c0-0.14-0.02-0.26-0.06-0.37c-0.04-0.11-0.06-0.22-0.06-0.33
		c0-0.77,0.5-1.15,1.5-1.15h13.05c1.03,0,1.73,0.52,2.11,1.56l11.16,33.67c0.39,1.17,2.04,1.15,2.4-0.03l10.31-33.64
		c0.38-1.04,1.12-1.56,2.23-1.56h13.17c0.62,0,1.06,0.12,1.32,0.35c0.26,0.23,0.38,0.54,0.38,0.92c0,0.22-0.01,0.37-0.04,0.45v0.12
		l-7.21,20.95l4.26,12.67c0.38,1.14,1.99,1.15,2.38,0.02l11.91-33.92c0.38-1.04,1.12-1.56,2.23-1.56h12.76
		c0.62,0,1.06,0.12,1.32,0.35c0.26,0.23,0.38,0.54,0.38,0.92c0,0.22-0.01,0.37-0.04,0.45v0.12c-1.84,4.82-3.71,9.63-5.63,14.42
		c-1.92,4.79-3.84,9.58-5.77,14.38c-1.93,4.79-3.85,9.59-5.75,14.4c-1.9,4.81-3.76,9.61-5.57,14.4c-0.11,0.3-0.35,0.64-0.73,1.01
		s-0.84,0.55-1.38,0.55h-0.12h-9.81c-0.59,0-1.05-0.12-1.36-0.35c-0.31-0.23-0.53-0.54-0.67-0.93l-5.21-13.92
		c-0.41-1.09-1.96-1.08-2.36,0.01c-0.52,1.4-1.03,2.78-1.54,4.15c-0.89,2.4-1.78,4.84-2.67,7.33c-0.14,0.38-0.29,0.79-0.47,1.21
		c-0.18,0.42-0.38,0.82-0.63,1.19c-0.24,0.37-0.52,0.68-0.83,0.92c-0.31,0.25-0.67,0.37-1.07,0.37h-0.12h-9.81
		C133.62,125,133.06,124.71,132.79,124.14z"/>
	<path class="st0" d="M231.18,119.68c-2.03,1.87-4.32,3.33-6.86,4.38c-2.54,1.05-5.23,1.58-8.07,1.58c-3.16,0-6.15-0.58-8.97-1.73
		c-2.82-1.16-5.29-2.75-7.41-4.8c-2.12-2.04-3.81-4.45-5.06-7.22c-1.25-2.77-1.87-5.79-1.87-9.04c0-2.03,0.25-4,0.74-5.91
		c0.5-1.9,1.2-3.69,2.11-5.35c0.91-1.66,2.02-3.19,3.32-4.59c1.31-1.4,2.77-2.59,4.38-3.59c1.62-0.99,3.37-1.77,5.27-2.32
		c1.89-0.55,3.89-0.83,5.99-0.83c1.92,0,3.78,0.25,5.58,0.76c1.8,0.51,3.49,1.22,5.08,2.15c1.58,0.92,3.03,2.03,4.35,3.33
		c1.32,1.29,2.45,2.71,3.39,4.24c0.95,1.54,1.68,3.18,2.2,4.92c0.52,1.74,0.78,3.54,0.78,5.39c0,1.2-0.02,2.18-0.05,2.94
		c-0.03,0.76-0.21,1.37-0.54,1.82c-0.32,0.45-0.86,0.76-1.61,0.94c-0.75,0.17-1.85,0.26-3.31,0.26l-23.55,0
		c-0.73,0-1.29,0.7-1.08,1.4c0.26,0.88,0.62,1.65,1.09,2.31c0.7,0.99,1.52,1.78,2.44,2.37s1.91,1.01,2.94,1.26
		c1.04,0.25,2.02,0.38,2.95,0.38c0.83,0,1.68-0.09,2.56-0.26c0.88-0.17,1.73-0.4,2.55-0.69c0.82-0.29,1.57-0.62,2.25-1
		c0.68-0.38,1.23-0.78,1.65-1.19c0.37-0.3,0.69-0.53,0.95-0.68c0.26-0.15,0.55-0.22,0.85-0.22c0.3,0,0.6,0.1,0.92,0.31
		c0.31,0.21,0.66,0.51,1.06,0.9l3.67,4.16c0.25,0.3,0.41,0.57,0.48,0.82c0.07,0.24,0.1,0.49,0.1,0.74c0,0.46-0.13,0.86-0.38,1.19
		C231.83,119.13,231.53,119.43,231.18,119.68z M214.52,90.66c-0.9,0-1.77,0.18-2.62,0.54c-0.84,0.36-1.63,0.84-2.37,1.44
		c-0.74,0.6-1.4,1.28-1.99,2.04c-0.15,0.19-0.29,0.38-0.43,0.58c-0.51,0.74,0,1.74,0.9,1.74l13.85,0c0.87,0,1.41-0.97,0.93-1.69
		c-0.18-0.28-0.37-0.55-0.57-0.81c-0.57-0.76-1.21-1.43-1.94-2.01c-0.73-0.58-1.56-1.03-2.49-1.35
		C216.86,90.82,215.77,90.66,214.52,90.66z"/>
	<path class="st0" d="M274.61,123.64c0.16-0.46,0.27-0.97,0.32-1.52c0.05-0.55,0.07-1.13,0.07-1.73c0-0.21,0-0.86,0-0.86
		s0.62-0.19,0.61-0.26c-0.01-0.07-0.02-0.16,0.39-0.26v-0.47c-1.07,0.72-1.76,1.42-2.45,2.11c-0.69,0.69-1.46,1.31-2.3,1.85
		c-0.84,0.54-1.8,0.98-2.86,1.32c-1.06,0.34-2.3,0.5-3.71,0.5c-3.12,0-6.01-0.53-8.66-1.59c-2.66-1.06-4.95-2.55-6.89-4.45
		c-1.94-1.9-3.45-4.19-4.54-6.84c-1.09-2.66-1.63-5.58-1.63-8.76c0-3.16,0.54-6.13,1.63-8.89c1.09-2.76,2.6-5.16,4.54-7.21
		c1.94-2.04,4.24-3.65,6.89-4.82c2.66-1.17,5.54-1.75,8.66-1.75c1.43,0,2.74,0.16,3.91,0.48c1.18,0.32,2.26,0.77,3.24,1.33
		c0.98,0.57,1.88,1.23,2.68,1.99c0.34,0.32,0.67,0.65,0.99,0.98c0.58,0.61,1.6,0.39,1.85-0.42l0.39-1.23
		c0.14-0.39,0.27-0.75,0.38-1.07c0.12-0.32,0.27-0.59,0.45-0.81c0.18-0.22,0.42-0.39,0.71-0.5c0.29-0.12,1.13,0.22,1.13,0.22h4.78
		c0.33,0,0.66,0.06,0.99,0.17c0.33,0.12,0.63,0.28,0.91,0.48c0.27,0.21,0.49,0.47,0.66,0.8c0.17,0.32,0.25,0.69,0.25,1.11v35.27
		c0,3.6-0.6,6.81-1.81,9.63c-1.21,2.82-2.86,5.2-4.95,7.14c-2.1,1.94-4.58,3.42-7.44,4.43c-2.87,1.02-5.94,1.52-9.24,1.52
		c-1.28,0-2.65-0.11-4.12-0.33c-1.47-0.22-2.93-0.55-4.39-0.99s-2.87-1-4.23-1.68c-1.36-0.68-2.56-1.47-3.61-2.37
		c-0.36-0.25-0.66-0.57-0.91-0.95c-0.25-0.38-0.37-0.8-0.37-1.26c0-0.58,0.22-1.19,0.67-1.84l3.37-4.54
		c0.33-0.35,0.64-0.61,0.92-0.78c0.28-0.17,0.59-0.26,0.92-0.26c0.52,0,1.17,0.28,1.95,0.83c0.59,0.55,1.27,1,2.04,1.33
		c0.77,0.33,1.56,0.6,2.38,0.8c0.82,0.2,1.62,0.32,2.42,0.38c0.79,0.06,1.51,0.09,2.15,0.09c1.07,0,2.18-0.14,3.34-0.42
		c1.16-0.28,2.24-0.69,3.25-1.23s1.89-1.21,2.66-1.99S274.33,124.66,274.61,123.64z M255.08,102.68c0,1.55,0.24,2.98,0.71,4.31
		c0.47,1.33,1.15,2.48,2.03,3.45c0.88,0.97,1.93,1.73,3.17,2.29c1.24,0.55,2.6,0.83,4.1,0.83c1.48,0,2.87-0.26,4.18-0.78
		c1.3-0.52,2.44-1.24,3.41-2.17c0.97-0.92,1.75-2.01,2.34-3.26s0.92-2.6,0.99-4.05v-1.14c-0.07-1.41-0.4-2.74-0.99-4
		c-0.59-1.26-1.37-2.37-2.34-3.33c-0.97-0.96-2.11-1.72-3.41-2.29c-1.31-0.57-2.7-0.85-4.18-0.85c-1.5,0-2.87,0.29-4.1,0.88
		c-1.24,0.59-2.29,1.38-3.17,2.37c-0.88,0.99-1.55,2.16-2.03,3.5C255.31,99.79,255.08,101.2,255.08,102.68z"/>
	<path class="st0" d="M328.49,123.25c0.16-0.46,0.27-0.97,0.31-1.52c0.05-0.55-0.81-1.73-0.81-1.73v-0.47c0,0,0.87-0.19,0.86-0.26
		c-0.01-0.07-0.02-0.16,0.14-0.26v-0.47c-0.83,0.72-1.51,1.42-2.2,2.11c-0.69,0.69-1.46,1.31-2.3,1.85
		c-0.84,0.54-1.8,0.98-2.86,1.32c-1.06,0.34-2.3,0.5-3.71,0.5c-3.12,0-6-0.53-8.66-1.59c-2.66-1.06-4.95-2.55-6.89-4.45
		c-1.94-1.9-3.45-4.19-4.54-6.84c-1.09-2.66-1.63-5.58-1.63-8.76c0-3.16,0.54-6.13,1.63-8.89c1.09-2.76,2.6-5.16,4.54-7.21
		c1.94-2.04,4.24-3.65,6.89-4.82c2.66-1.17,5.54-1.75,8.66-1.75c1.43,0,2.74,0.16,3.91,0.48c1.18,0.32,2.26,0.77,3.24,1.33
		c0.98,0.57,1.88,1.23,2.68,1.99c0.34,0.32,0.67,0.65,0.99,0.98c0.58,0.61,1.6,0.39,1.85-0.42l0.39-1.23
		c0.14-0.39,0.27-0.75,0.38-1.07c0.12-0.32,0.27-0.59,0.45-0.81c0.18-0.22,0.42-0.39,0.71-0.5c0.29-0.12,1.13,0.22,1.13,0.22h5.16
		c0,0,0.65-0.33,0.97-0.22c0.32,0.12,0.62,0.28,0.88,0.48c0.27,0.21,0.48,0.47,0.64,0.8c0.16,0.32,0.24,0.69,0.69,1.11v35.27
		c-0.45,3.6-1.04,6.81-2.21,9.63c-1.18,2.82-2.79,5.2-4.83,7.14c-2.04,1.94-4.46,3.42-7.26,4.43c-2.79,1.02-5.8,1.52-9.01,1.52
		c-1.25,0-2.59-0.11-4.02-0.33c-1.43-0.22-2.86-0.55-4.28-0.99c-1.42-0.44-2.79-1-4.12-1.68c-1.33-0.68-2.5-1.47-3.52-2.37
		c-0.35-0.25-0.64-0.57-0.88-0.95c-0.24-0.38-0.36-0.8-0.36-1.26c0-0.58,0.22-1.19,0.66-1.84l3.29-4.54
		c0.32-0.35,0.62-0.61,0.9-0.78c0.28-0.17,0.58-0.26,0.9-0.26c0.51,0,1.14,0.28,1.9,0.83c0.58,0.55,1.24,1,1.99,1.33
		c0.75,0.33,1.52,0.6,2.32,0.8c0.8,0.2,1.58,0.32,2.36,0.38s1.47,0.09,2.1,0.09c1.04,0,2.12-0.14,3.26-0.42
		c1.13-0.28,2.19-0.69,3.17-1.23c0.98-0.54,1.85-1.21,2.6-1.99C327.7,125.17,328.22,124.27,328.49,123.25z M309.08,102.68
		c0,1.55,0.24,2.98,0.71,4.31c0.47,1.33,1.15,2.48,2.03,3.45c0.88,0.97,1.93,1.73,3.17,2.29c1.24,0.55,2.6,0.83,4.1,0.83
		c1.48,0,2.87-0.26,4.18-0.78c1.3-0.52,2.44-1.24,3.41-2.17c0.97-0.92,1.75-2.01,2.34-3.26s0.92-2.6,0.99-4.05v-1.14
		c-0.07-1.41-0.4-2.74-0.99-4c-0.59-1.26-1.37-2.37-2.34-3.33c-0.97-0.96-2.11-1.72-3.41-2.29c-1.31-0.57-2.7-0.85-4.18-0.85
		c-1.5,0-2.87,0.29-4.1,0.88c-1.24,0.59-2.29,1.38-3.17,2.37c-0.88,0.99-1.55,2.16-2.03,3.5
		C309.31,99.79,309.08,101.2,309.08,102.68z"/>
	<path class="st0" d="M348.52,102.81c0-2.13,0.27-4.17,0.82-6.13c0.54-1.96,1.3-3.78,2.29-5.46c0.98-1.67,2.16-3.2,3.53-4.57
		c1.37-1.37,2.9-2.55,4.59-3.52c1.68-0.97,3.5-1.72,5.46-2.25c1.95-0.53,3.99-0.8,6.11-0.8c3.14,0,6.09,0.58,8.85,1.75
		c2.76,1.17,5.16,2.77,7.21,4.82c2.04,2.04,3.66,4.45,4.85,7.21c1.19,2.76,1.78,5.74,1.78,8.95c0,2.13-0.27,4.16-0.81,6.11
		c-0.54,1.95-1.31,3.77-2.29,5.46c-0.98,1.69-2.16,3.22-3.53,4.59c-1.37,1.37-2.9,2.55-4.59,3.53c-1.69,0.98-3.49,1.74-5.42,2.27
		c-1.93,0.53-3.94,0.8-6.05,0.8c-2.13,0-4.16-0.27-6.11-0.8c-1.95-0.53-3.77-1.29-5.46-2.27c-1.69-0.98-3.22-2.16-4.59-3.53
		c-1.37-1.37-2.55-2.9-3.53-4.59c-0.98-1.68-1.74-3.5-2.29-5.46C348.79,106.98,348.52,104.94,348.52,102.81z M361.16,102.81
		c0,1.52,0.24,2.95,0.71,4.28c0.47,1.33,1.14,2.48,2.01,3.45c0.87,0.97,1.92,1.74,3.15,2.3c1.24,0.57,2.63,0.85,4.18,0.85
		c1.5,0,2.86-0.28,4.07-0.85s2.24-1.33,3.08-2.3c0.84-0.97,1.49-2.12,1.94-3.45c0.45-1.33,0.68-2.75,0.68-4.28
		c0-1.48-0.22-2.89-0.68-4.23c-0.45-1.34-1.1-2.52-1.94-3.53c-0.84-1.02-1.87-1.82-3.08-2.41s-2.57-0.88-4.07-0.88
		c-1.55,0-2.94,0.29-4.18,0.88c-1.24,0.59-2.29,1.39-3.15,2.41c-0.87,1.02-1.54,2.19-2.01,3.53S361.16,101.34,361.16,102.81z"/>
</g>
<path class="st1" d="M48,94.54V75.11c0-4.77,3.87-8.63,8.63-8.63h0.2c8.93,0,16.17,7.24,16.17,16.17v11.89
	c0,0.25-0.21,0.46-0.46,0.46H48.46C48.21,95,48,94.79,48,94.54z"/>
<path class="st0" d="M47,95.34c0,0,15-10.75,25,0H47z"/>
</svg>
