<?xml version="1.0" encoding="UTF-8"?>
<svg id="Layer_2" data-name="Layer 2" xmlns="http://www.w3.org/2000/svg" viewBox="0 0 270.19 61.03">
  <defs>
    <style>
      .cls-1 {
        fill: #fff;
      }

      .cls-2 {
        fill: #005487;
      }

      .cls-3 {
        opacity: .5;
      }

      .cls-4 {
        fill: #ea4435;
      }
    </style>
  </defs>
  <g id="Layer_1-2" data-name="Layer 1">
    <path class="cls-1" d="M60.94,15.24l-2.23-2.23L45.7,0l-12.44,12.44c1.25,.81,2.44,1.76,3.54,2.86,8.42,8.42,8.42,22.07,0,30.49l-2.23,2.23-.57,.57c8.35,5.41,19.62,4.46,26.94-2.86,8.42-8.42,8.42-22.07,0-30.49"/>
    <path class="cls-1" d="M30.45,15.24c-8.42,8.42-8.42,22.07,0,30.49,1.1,1.1,2.29,2.05,3.54,2.86l-12.44,12.44-13.01-13.01-2.23-2.23C-2.1,37.37-2.1,23.72,6.31,15.3c7.32-7.32,18.59-8.27,26.94-2.86l-.57,.57-2.23,2.23"/>
    <g class="cls-3">
      <path class="cls-4" d="M30.45,15.24c-8.42,8.42-8.42,22.07,0,30.49,1.1,1.1,2.29,2.05,3.54,2.86l-12.44,12.44-13.01-13.01-2.23-2.23C-2.1,37.37-2.1,23.72,6.31,15.3c7.32-7.32,18.59-8.27,26.94-2.86l-.57,.57-2.23,2.23"/>
    </g>
    <path class="cls-2" d="M60.94,15.24c8.42,8.42,8.42,22.07,0,30.49-7.32,7.32-18.59,8.27-26.94,2.86l.57-.57,2.23-2.23c8.42-8.42,8.42-22.07,0-30.49-1.1-1.1-2.29-2.05-3.54-2.86L45.7,0l13.01,13.01,2.23,2.23m35.89,6.25l-3.14,10.54-3.89-10.54h-4.16l-3.89,10.54-3.14-10.54h-5.36l6.35,18.02h4.31l3.82-11.18,3.81,11.18h4.31l6.35-18.02h-5.36Zm18.48-.45c-2.04,0-3.74,.64-5.21,1.81V12.7h-4.95v26.82h4.95v-11.67c1.28-1.51,2.8-2.3,4.16-2.3,2.61,0,4.08,1.55,4.08,4.5v9.48h4.95v-9.78c0-5.29-3.17-8.69-7.97-8.69Zm30.71,.45v18.02h-4.95v-1.02c-1.4,.91-3.17,1.47-5.18,1.47-4.99,0-8.99-4.23-8.99-9.44s4-9.48,8.99-9.48c2,0,3.78,.57,5.18,1.47v-1.02h4.95Zm-4.95,6.16c-1.17-1.66-2.8-2.11-4.42-2.11-2.83,0-4.8,2.27-4.8,4.99s1.96,4.95,4.8,4.95c1.62,0,3.25-.45,4.42-2.12v-5.7Zm8.18-2v6.69c0,4.61,2.72,7.63,7.56,7.63,1.32,0,2.68-.15,4.34-.79l-.68-4.5c-.91,.38-1.96,.72-3.1,.72-1.85,0-3.17-.94-3.17-3.06v-6.69h6.61v-4.15h-6.61v-6.54h-4.95v10.69Zm32.03,6.31h-13.22c.38,2.08,1.74,3.66,4.57,3.66,1.32,0,2.23-.23,2.87-1.02h5.48c-1.21,3.4-4.42,5.36-8.39,5.36-5.78,0-9.59-4.08-9.59-9.44s3.78-9.48,9.29-9.48c6.19,0,9.93,4.68,8.99,10.92Zm-4.91-3.36c-.26-2.3-1.74-3.36-4.04-3.36-2.42,0-3.7,1.47-4.16,3.36h8.2Zm13.53-5.02v-2.08h-4.95v18.02h4.95v-10.92c1.55-1.74,3.59-2.57,6.38-2.72v-4.68c-2.68,0-4.76,.83-6.38,2.38Z"/>
    <path class="cls-4" d="M34.57,48.02l-.57,.57c-1.25-.81-2.45-1.76-3.54-2.86-8.42-8.42-8.42-22.07,0-30.49l2.23-2.23,.57-.57c1.25,.81,2.44,1.76,3.54,2.86,8.42,8.42,8.42,22.07,0,30.49l-2.23,2.23Zm161.72-11.14c0-1.62,1.36-2.87,2.98-2.87s3.02,1.25,3.02,2.87-1.36,2.91-3.02,2.91-2.98-1.25-2.98-2.91Zm22.06-15.37v1.02c-1.4-.91-3.17-1.47-5.18-1.47-4.99,0-8.99,4.23-8.99,9.48s4,9.44,8.99,9.44c2,0,3.78-.57,5.18-1.47v1.02h4.95V21.5h-4.95Zm0,11.86c-1.17,1.66-2.8,2.12-4.42,2.12-2.83,0-4.8-2.27-4.8-4.95s1.96-4.99,4.8-4.99c1.62,0,3.25,.45,4.42,2.11v5.7Zm19.83-12.24c-2,0-3.78,.53-5.17,1.44v-1.06h-4.95v26.82h4.95v-9.86c1.4,.91,3.17,1.44,5.17,1.44,4.99,0,8.99-4.16,8.99-9.37s-4-9.41-8.99-9.41Zm-.76,14.51c-1.62,0-3.25-.57-4.42-2.23v-5.78c1.17-1.66,2.79-2.23,4.42-2.23,2.83,0,4.8,2.42,4.8,5.14s-1.96,5.1-4.8,5.1Zm23.76-14.51c-2,0-3.78,.53-5.17,1.44v-1.06h-4.95v26.82h4.95v-9.86c1.4,.91,3.17,1.44,5.17,1.44,4.99,0,8.99-4.16,8.99-9.37s-4-9.41-8.99-9.41Zm-.76,14.51c-1.62,0-3.25-.57-4.42-2.23v-5.78c1.17-1.66,2.79-2.23,4.42-2.23,2.83,0,4.8,2.42,4.8,5.14s-1.96,5.1-4.8,5.1Z"/>
  </g>
</svg>