<?xml version="1.0" encoding="utf-8"?>
<!-- Generator: Adobe Illustrator 27.0.0, SVG Export Plug-In . SVG Version: 6.00 Build 0)  -->
<svg version="1.1" id="Layer_1" xmlns:v="https://vecta.io/nano"
	 xmlns="http://www.w3.org/2000/svg" xmlns:xlink="http://www.w3.org/1999/xlink" x="0px" y="0px" viewBox="0 0 48 48"
	 style="enable-background:new 0 0 48 48;" xml:space="preserve">
<style type="text/css">
	.st0{fill:#FFFFFF;}
</style>
<path class="st0" d="M36,36V12c0-1.7-1.3-3-3-3H15c-1.7,0-3,1.3-3,3v24c0,1.7,1.3,3,3,3h18C34.7,39,36,37.7,36,36z M14,36V12
	c0-0.6,0.4-1,1-1h18c0.6,0,1,0.4,1,1v24c0,0.6-0.4,1-1,1H15C14.4,37,14,36.6,14,36z M30,13H18c-1.1,0-2,0.9-2,2v2c0,1.1,0.9,2,2,2
	h12c1.1,0,2-0.9,2-2v-2C32,13.9,31.1,13,30,13z M18,17v-2h12l0,2H18z M21,23h-1v-1c0-0.6-0.4-1-1-1s-1,0.4-1,1v1h-1
	c-0.6,0-1,0.4-1,1s0.4,1,1,1h1v1c0,0.6,0.4,1,1,1s1-0.4,1-1v-1h1c0.6,0,1-0.4,1-1S21.6,23,21,23z M31,23h-4c-0.6,0-1,0.4-1,1
	s0.4,1,1,1h4c0.6,0,1-0.4,1-1S31.6,23,31,23z M31,29.5h-4c-0.6,0-1,0.4-1,1s0.4,1,1,1h4c0.6,0,1-0.4,1-1S31.6,29.5,31,29.5z
	 M31,32.5h-4c-0.6,0-1,0.4-1,1s0.4,1,1,1h4c0.6,0,1-0.4,1-1S31.6,32.5,31,32.5z M21.1,29.9c-0.4-0.4-1-0.4-1.4,0L19,30.6l-0.7-0.7
	c-0.4-0.4-1-0.4-1.4,0c-0.4,0.4-0.4,1,0,1.4l0.7,0.7l-0.7,0.7c-0.4,0.4-0.4,1,0,1.4c0.2,0.2,0.5,0.3,0.7,0.3s0.5-0.1,0.7-0.3
	l0.7-0.7l0.7,0.7c0.2,0.2,0.5,0.3,0.7,0.3s0.5-0.1,0.7-0.3c0.4-0.4,0.4-1,0-1.4L20.4,32l0.7-0.7C21.5,30.9,21.5,30.3,21.1,29.9z"/>
</svg>
