<?xml version="1.0" encoding="utf-8"?>
<!-- Generator: Adobe Illustrator 27.0.0, SVG Export Plug-In . SVG Version: 6.00 Build 0)  -->
<svg version="1.1" id="Layer_1" xmlns:v="https://vecta.io/nano"
	 xmlns="http://www.w3.org/2000/svg" xmlns:xlink="http://www.w3.org/1999/xlink" x="0px" y="0px" viewBox="0 0 48 48"
	 style="enable-background:new 0 0 48 48;" xml:space="preserve">
<style type="text/css">
	.st0{fill:#FFFFFF;}
</style>
<path class="st0" d="M34,16h-4v-1c0-1.7-1.3-3-3-3h-6c-1.7,0-3,1.3-3,3v1h-4c-1.7,0-3,1.3-3,3v4c0,0.9,0.4,1.7,1,2.2V31
	c0,2.8,2.2,5,5,5h14c2.8,0,5-2.2,5-5v-5.8c0.6-0.5,1-1.3,1-2.2v-4C37,17.3,35.7,16,34,16z M20,15c0-0.6,0.4-1,1-1h6c0.6,0,1,0.4,1,1
	v1h-8V15z M13,19c0-0.6,0.4-1,1-1h20c0.6,0,1,0.4,1,1v4c0,0.6-0.4,1-1,1h-7v-1c0-0.6-0.4-1-1-1h-4c-0.6,0-1,0.4-1,1v1h-7
	c-0.6,0-1-0.4-1-1V19z M25,24v2h-2v-2H25z M34,31c0,1.7-1.3,3-3,3H17c-1.7,0-3-1.3-3-3v-5h7v1c0,0.6,0.4,1,1,1h4c0.6,0,1-0.4,1-1v-1
	h7V31z"/>
</svg>
